<svg width="47" height="45" fill="none" xmlns="http://www.w3.org/2000/svg"><path fill-rule="evenodd" clip-rule="evenodd" d="M20.535 1.684C20.581.717 21.181 0 21.883 0h1.227c.686 0 1.28.687 1.34 1.631a23.1 23.1 0 0 1 .027 2.527 18.24 18.24 0 0 1 6.206 1.48c.033-.14.083-.282.151-.421a19.5 19.5 0 0 1 1.29-2.258c.472-.706 1.276-.932 1.851-.6l1.136.656c.594.343.789 1.19.388 1.969-.364.708-.785 1.43-1.25 2.148a2.022 2.022 0 0 1-.286.35 18.48 18.48 0 0 1 4.263 4.199c.054-.043.11-.084.17-.123a25.377 25.377 0 0 1 2.176-1.266c.79-.406 1.645-.21 1.99.388l.662 1.145c.335.58.105 1.392-.61 1.87-.739.493-1.509.924-2.286 1.305a2.055 2.055 0 0 1-.147.066 18.258 18.258 0 0 1 1.469 5.531c.139-.033.286-.054.44-.062a29.084 29.084 0 0 1 2.684-.008c.946.043 1.632.634 1.632 1.32v1.312c0 .664-.645 1.248-1.56 1.303-.946.058-1.887.046-2.808-.012a2.332 2.332 0 0 1-.387-.057 18.255 18.255 0 0 1-1.452 5.501 19.562 19.562 0 0 1 2.363 1.368c.736.496.99 1.343.64 1.95l-.625 1.083c-.358.62-1.246.814-2.054.401a25.093 25.093 0 0 1-2.184-1.25 1.966 1.966 0 0 1-.136-.096 18.48 18.48 0 0 1-3.936 3.948c.042.053.082.11.12.169.437.678.856 1.412 1.251 2.184.414.808.23 1.69-.378 2.04l-1.062.614c-.595.343-1.43.083-1.925-.655a19.946 19.946 0 0 1-1.327-2.273 2.065 2.065 0 0 1-.05-.108 18.245 18.245 0 0 1-4.942 1.426c.055.9.065 1.82.008 2.745-.055.915-.639 1.56-1.303 1.56h-1.312c-.686 0-1.277-.686-1.32-1.632a28.918 28.918 0 0 1 .002-2.541 18.27 18.27 0 0 1-5.973-1.466 25.392 25.392 0 0 1-1.302 2.248c-.493.762-1.353 1.041-1.965.688l-1.071-.619c-.6-.346-.796-1.202-.405-2 .38-.775.81-1.543 1.301-2.28a18.48 18.48 0 0 1-4.017-3.972l-.03.02c-.678.437-1.411.856-2.184 1.25-.808.413-1.696.219-2.054-.4l-.626-1.085c-.35-.606-.095-1.453.641-1.948a19.61 19.61 0 0 1 2.23-1.305 18.257 18.257 0 0 1-1.477-5.533 2.74 2.74 0 0 1-.228.025 22.66 22.66 0 0 1-2.808.012C1.145 24.407.5 23.823.5 23.16v-1.312c0-.686.686-1.277 1.632-1.32.86-.039 1.76-.036 2.684.008.097.005.19.015.282.03.205-1.961.719-3.83 1.492-5.56L6.578 15a19.793 19.793 0 0 1-2.286-1.305c-.715-.478-.945-1.29-.61-1.87l.662-1.145c.345-.599 1.2-.794 1.99-.388a25.382 25.382 0 0 1 2.242 1.31 18.48 18.48 0 0 1 4.036-3.999 19.597 19.597 0 0 1-1.361-2.323c-.38-.77-.168-1.591.418-1.93l1.157-.668c.604-.349 1.448-.093 1.93.653.436.678.856 1.411 1.25 2.184.02.039.038.078.055.118a18.243 18.243 0 0 1 4.465-1.293 29.146 29.146 0 0 1 .01-2.66Zm2.837 5.441c-8.491 0-15.375 6.884-15.375 15.375s6.884 15.375 15.375 15.375S38.747 30.991 38.747 22.5 31.863 7.125 23.372 7.125Z" fill="#fff"/></svg>