<svg width="14" height="10" fill="none" xmlns="http://www.w3.org/2000/svg"><path d="M.75 4.977C.776 2.267 2.92.076 5.57.05L10.83 0l2.42 9.927L5.661 10C2.938 10.026.724 7.76.751 4.977Z" fill="#fff"/><path d="M8.672 2.188H4.686a.757.757 0 0 0-.757.756v3.987c0 .418.339.756.757.756H6.63c.188 0 .37-.07.508-.195L9.18 5.645a.757.757 0 0 0 .249-.562V2.944a.757.757 0 0 0-.757-.756Z" fill="#fff" stroke="#41B1F1" stroke-width=".375" stroke-linecap="round"/><path d="M8.33 3.172H5.028m3.302.911H5.028" stroke="#41B1F1" stroke-width=".375" stroke-linecap="round"/><path d="M8.73 4.804a.285.285 0 0 0-.403 0L6.733 6.4a.285.285 0 0 0-.077.141l-.155.72a.285.285 0 0 0 .338.338l.72-.154a.285.285 0 0 0 .142-.077l1.595-1.594a.285.285 0 0 0 0-.403l-.566-.566Z" stroke="#fff" stroke-width=".569" stroke-linejoin="round"/><path d="m9.094 5.571-.565-.565L6.934 6.6l-.154.72.72-.154L9.094 5.57Z" fill="#fff" stroke="#41B1F1" stroke-width=".375" stroke-linejoin="round"/></svg>