<svg width="14" height="10" fill="none" xmlns="http://www.w3.org/2000/svg"><path d="M.75 4.977C.776 2.267 2.92.076 5.57.05L10.83 0l2.42 9.927L5.661 10C2.938 10.026.724 7.76.751 4.977Z" fill="#fff"/><path d="M8.741 2.313H4.866a.812.812 0 0 0-.812.812V7c0 .449.364.813.812.813h3.875A.813.813 0 0 0 9.554 7V3.125a.813.813 0 0 0-.813-.813Z" fill="#fff" stroke="#41B1F1" stroke-width=".375" stroke-linecap="round"/><path d="M5.608 3.411v3.417m1.139-3.417v3.417m1.139-3.417v3.417m.569-2.848H5.04m3.415 1.14H5.04m3.415 1.138H5.04" stroke="#41B1F1" stroke-width=".375" stroke-linecap="round"/></svg>