<svg width="14" height="10" fill="none" xmlns="http://www.w3.org/2000/svg"><path d="M.75 4.977C.776 2.267 2.92.076 5.57.05L10.83 0l2.42 9.927L5.661 10C2.938 10.026.724 7.76.751 4.977Z" fill="#fff"/><path d="M4.116 6.592h5.302M4.382 4.821h4.77" stroke="#41B1F1" stroke-width=".375" stroke-linecap="round"/><path d="M4.116 7.375V5.01l.663-1.681h3.778l.861 1.681v2.366" stroke="#41B1F1" stroke-width=".375" stroke-linecap="round" stroke-linejoin="round"/><ellipse cx="5.111" cy="5.743" rx=".331" ry=".326" fill="#41B1F1"/><ellipse cx="8.424" cy="5.743" rx=".331" ry=".326" fill="#41B1F1"/><path d="M10.214 4.048a.307.307 0 0 0 0-.438L8.36 1.782a.318.318 0 0 0-.256-.09l-1.138.119a.313.313 0 0 0-.28.276l-.12 1.12a.307.307 0 0 0 .09.252l1.856 1.828a.318.318 0 0 0 .446 0l1.257-1.239Z" fill="#fff" stroke="#fff" stroke-width=".625" stroke-linejoin="round"/><path d="m8.734 5.068 1.257-1.24-1.855-1.827-1.138.118-.12 1.12 1.856 1.829Z" stroke="#41B1F1" stroke-width=".375" stroke-linejoin="round"/><ellipse cx="7.796" cy="2.905" rx=".331" ry=".326" fill="#41B1F1"/></svg>