<svg width="14" height="10" fill="none" xmlns="http://www.w3.org/2000/svg"><path d="M.819 4.977C.844 2.267 2.988.076 5.639.05L10.898 0l2.42 9.927L5.73 10C3.006 10.026.792 7.76.819 4.977Z" fill="#fff"/><path d="M10.435 6.773H8.47M5.036 3.716v-.841c0-.069.056-.125.125-.125h4.167c.07 0 .125.056.125.125v3.898" stroke="#41B1F1" stroke-width=".25" stroke-linecap="round" stroke-linejoin="round"/><path d="M4.185 6.647h3.663m-3.48-1.242h3.297" stroke="#41B1F1" stroke-width=".25" stroke-linecap="round"/><path d="M4.185 7.196v-1.66l.458-1.179h2.61l.595 1.18v1.66" stroke="#41B1F1" stroke-width=".25" stroke-linecap="round" stroke-linejoin="round"/><circle cx="4.872" cy="6.051" r=".229" fill="#41B1F1"/><circle cx="7.161" cy="6.051" r=".229" fill="#41B1F1"/></svg>