<svg width="14" height="10" fill="none" xmlns="http://www.w3.org/2000/svg"><path d="M.75 4.977C.776 2.267 2.92.076 5.57.05L10.83 0l2.42 9.927L5.661 10C2.938 10.026.724 7.76.751 4.977Z" fill="#fff"/><path d="M3.991 2.375h5.375M3.991 7.75h5.375M8.77 5.003h.596m-5.375.119h.598m0-2.747V7.75M8.77 2.375V7.75" stroke="#41B1F1" stroke-width=".375" stroke-linecap="round"/><path d="M6.679 3.808s1.08.951.868 1.595c-.142.432-.412.684-.868.684s-.726-.252-.868-.684c-.213-.644.868-1.595.868-1.595Z" stroke="#41B1F1" stroke-width=".375"/></svg>