<svg width="242" height="80" fill="none" xmlns="http://www.w3.org/2000/svg"><path d="M47.348 49.126h4.564l5.62 15.589h-3.795l-1.393-4.108h-5.693l-1.369 4.108h-3.699l5.765-15.59Zm4.18 8.983-1.97-5.86h-.096l-1.97 5.86h4.035Zm11.096-8.983h6.318c1.489 0 2.634.112 3.434.336.817.208 1.394.552 1.73 1.033.336.464.504 1.12.504 1.97v1.921c0 .432-.176.84-.528 1.225a2.597 2.597 0 0 1-1.201.793v.12c.608.064 1.16.328 1.657.793.513.448.769.952.769 1.513v2.402c0 1.265-.505 2.162-1.513 2.69-1.01.529-2.57.793-4.684.793h-6.486v-15.59Zm6.318 6.341c.592 0 1.032-.048 1.32-.144.289-.096.481-.248.577-.456.112-.225.168-.545.168-.961v-.769c0-.368-.048-.64-.144-.817-.096-.192-.296-.328-.6-.408-.289-.08-.753-.12-1.394-.12h-2.498v3.675h2.57Zm.096 6.582c.912 0 1.56-.105 1.945-.313.385-.208.577-.544.577-1.008v-1.25c0-.576-.152-.984-.457-1.225-.288-.24-.808-.36-1.561-.36h-3.17v4.156h2.666Zm15.8-10.257h-4.805v-2.666h13.332v2.666h-4.78v12.923h-3.748V51.792Zm21.083 13.163c-.865 0-1.666-.056-2.402-.168a12.986 12.986 0 0 1-2.258-.577c-.849-.288-1.513-.752-1.994-1.393-.48-.656-.72-1.449-.72-2.378v-6.822c0-.768.168-1.457.504-2.065.352-.609.8-1.09 1.345-1.442.48-.304 1.073-.56 1.778-.768a9.675 9.675 0 0 1 1.969-.385 20.875 20.875 0 0 1 1.778-.072 16.7 16.7 0 0 1 1.921.096c.545.048 1.153.16 1.826.337.769.224 1.401.496 1.898.816.496.32.912.77 1.249 1.346.352.592.528 1.305.528 2.137v6.822c0 .865-.232 1.61-.697 2.234-.448.625-1.072 1.097-1.873 1.417-1.441.577-3.059.865-4.852.865Zm.048-2.666c.528 0 .969-.016 1.321-.048a7.49 7.49 0 0 0 1.129-.24c.384-.113.672-.297.865-.553.208-.272.312-.608.312-1.009v-6.846c0-.736-.296-1.257-.889-1.56-.592-.321-1.513-.481-2.762-.481s-2.17.152-2.763.456c-.592.304-.888.833-.888 1.585v6.846c0 .4.104.737.312 1.01.208.255.512.44.913.552a7.62 7.62 0 0 0 1.105.24c.368.032.816.048 1.345.048Zm20.646 2.666c-.704 0-1.337-.032-1.897-.096a12.79 12.79 0 0 1-1.802-.36c-.737-.192-1.345-.44-1.825-.745-.481-.32-.881-.76-1.201-1.321-.337-.56-.505-1.225-.505-1.994v-6.846c0-3.138 2.41-4.708 7.23-4.708 1.233 0 2.883.177 4.948.529v2.81c-1.857-.448-3.49-.672-4.9-.672-.592 0-1.057.016-1.393.048a4.19 4.19 0 0 0-1.009.24c-.752.256-1.129.825-1.129 1.705v6.63c0 1.41 1.289 2.114 3.868 2.114 1.105 0 2.658-.232 4.66-.697v2.835a25.013 25.013 0 0 1-5.045.528Zm10.802-15.83h11.89v2.667h-8.143v3.579h7.35v2.666h-7.35v4.012h8.383v2.666h-12.13v-15.59Zm18.024 0h6.245c1.521 0 2.722.105 3.603.313.897.208 1.545.576 1.946 1.105.416.512.624 1.233.624 2.162v2.954c0 1.025-.224 1.826-.672 2.402-.433.577-1.129.985-2.09 1.225-.945.24-2.226.36-3.844.36h-2.065v5.069h-3.747v-15.59Zm6.125 7.951c.977 0 1.665-.112 2.065-.336.401-.24.601-.64.601-1.201v-2.498c0-.512-.192-.849-.576-1.009-.369-.16-1.081-.24-2.138-.24h-2.33v5.284h2.378Zm12.297-7.95h6.317c1.49 0 2.635.112 3.435.336.817.208 1.394.552 1.73 1.033.336.464.504 1.12.504 1.97v1.921c0 .432-.176.84-.528 1.225a2.598 2.598 0 0 1-1.201.793v.12c.608.064 1.161.328 1.657.793.513.448.769.952.769 1.513v2.402c0 1.265-.505 2.162-1.513 2.69-1.009.529-2.571.793-4.684.793h-6.486v-15.59Zm6.317 6.341c.593 0 1.033-.048 1.322-.144.288-.096.48-.248.576-.456.112-.225.168-.545.168-.961v-.769c0-.368-.048-.64-.144-.817-.096-.192-.296-.328-.6-.408-.289-.08-.753-.12-1.394-.12h-2.498v3.675h2.57Zm.097 6.582c.912 0 1.561-.105 1.945-.313.385-.208.577-.544.577-1.008v-1.25c0-.576-.152-.984-.457-1.225-.288-.24-.808-.36-1.561-.36h-3.171v4.156h2.667Zm12.196-12.923h3.747V59.79l6.726-10.665h3.747v15.589h-3.747V53.882l-6.726 10.833h-3.747v-15.59Zm27.85 15.829c-.705 0-1.337-.032-1.898-.096a12.779 12.779 0 0 1-1.801-.36c-.737-.192-1.345-.44-1.826-.745-.48-.32-.88-.76-1.201-1.321-.336-.56-.504-1.225-.504-1.994v-6.846c0-3.138 2.41-4.708 7.23-4.708 1.233 0 2.883.177 4.948.529v2.81c-1.857-.448-3.491-.672-4.9-.672-.592 0-1.057.016-1.393.048a4.18 4.18 0 0 0-1.009.24c-.753.256-1.129.825-1.129 1.705v6.63c0 1.41 1.289 2.114 3.867 2.114 1.105 0 2.659-.232 4.66-.697v2.835a25.003 25.003 0 0 1-5.044.528ZM123.088.833C104.782-.455 74.779 6.557 61.34 12.997 73.326 9.419 101.803 2.192 122 3.337c25.244 1.431 49.217 19.39 54.665 19.857 5.449.466 20.341 1.61 35.96 4.114 15.618 2.505 25.244 10.197 28.876 15.385-4.54-9.302-13.439-13.954-27.968-17.353-21.612-4.65-30.511-1.967-42.316-7.155-11.805-5.188-25.244-15.742-48.128-17.352Z" fill="#FDFDFD"/><path d="M226.153 36.75c-7.991-3.04-17.253.12-21.975 2.148 0 0 13.076-2.505 20.885 0 7.81 2.504 14.348 9.48 14.348 9.48s-1.09-6.976-13.258-11.627ZM87.311 17.325C58.798 16.072 1.517 13.604.5 13.747l110.421 8.229-23.61-4.651Zm42.497 7.155C95.786 23.168 27.27 20.544 25.381 20.544c43.769 3.4 131.597 10.197 132.759 10.197 1.162 0-18.403-4.174-28.332-6.26Zm39.41 7.871L65.154 28.773l132.578 9.66-28.514-6.082Z" fill="#FDFDFD"/><path fill-rule="evenodd" clip-rule="evenodd" d="M46.074 36.392c.046-.968.647-1.685 1.349-1.685h1.228c.687 0 1.281.687 1.341 1.633.052.83.067 1.677.028 2.528a18.3 18.3 0 0 1 5.659 1.252 19.2 19.2 0 0 1 1.187-2.051c.472-.707 1.277-.933 1.853-.6l1.136.656c.595.343.79 1.19.389 1.97a24.57 24.57 0 0 1-1.07 1.867 18.476 18.476 0 0 1 2.215 1.753h-5.105a15.32 15.32 0 0 0-7.37-1.877c-8.5 0-15.389 6.89-15.389 15.388 0 8.499 6.89 15.388 15.388 15.388 2.67 0 5.182-.68 7.37-1.876h5.106c-.499.461-1.024.895-1.572 1.3.042.052.083.109.12.168a25.58 25.58 0 0 1 1.253 2.185c.413.81.23 1.692-.378 2.043l-1.064.614c-.595.343-1.432.083-1.927-.655a19.965 19.965 0 0 1-1.328-2.276 2.026 2.026 0 0 1-.05-.108 18.26 18.26 0 0 1-4.946 1.428c.055.901.065 1.822.009 2.746-.056.916-.64 1.562-1.305 1.562h-1.313c-.686 0-1.279-.687-1.321-1.633a28.969 28.969 0 0 1 .002-2.543 18.284 18.284 0 0 1-5.978-1.468 25.421 25.421 0 0 1-1.303 2.25c-.494.763-1.354 1.043-1.967.689l-1.072-.619c-.6-.346-.797-1.204-.406-2.002.38-.775.81-1.544 1.303-2.282a18.497 18.497 0 0 1-4.02-3.975l-.03.02a25.44 25.44 0 0 1-2.186 1.251c-.81.413-1.698.219-2.056-.402l-.626-1.084c-.35-.607-.096-1.455.641-1.95A19.66 19.66 0 0 1 32.1 64.69a18.273 18.273 0 0 1-1.492-5.674 2.221 2.221 0 0 1-.714.162c-.922.058-1.865.07-2.81.012-.917-.056-1.563-.64-1.563-1.304v-1.313c0-.687.687-1.279 1.634-1.322a29.41 29.41 0 0 1 2.686.009c.281.013.541.074.768.17a18.278 18.278 0 0 1 1.508-5.704l-.012-.006a19.814 19.814 0 0 1-2.288-1.306c-.715-.479-.946-1.29-.61-1.872l.661-1.146c.347-.6 1.203-.794 1.993-.388a25.383 25.383 0 0 1 2.243 1.312 18.496 18.496 0 0 1 4.04-4.003 19.61 19.61 0 0 1-1.362-2.325c-.38-.772-.169-1.593.418-1.932l1.158-.668c.605-.35 1.45-.094 1.931.653.437.678.857 1.413 1.252 2.186.02.039.038.078.055.118a18.26 18.26 0 0 1 4.469-1.294 29.158 29.158 0 0 1 .01-2.663Z" fill="#fff"/></svg>