<svg width="450" height="90" fill="none" xmlns="http://www.w3.org/2000/svg"><path d="M228.899.288c-34.182-2.405-90.203 10.689-115.297 22.714 22.381-6.68 75.554-20.175 113.263-18.037 47.136 2.672 91.899 36.205 102.072 37.076 10.174.872 37.981 3.007 67.144 7.683C425.245 54.4 443.218 68.764 450 78.45c-8.478-17.37-25.094-26.054-52.223-32.4-40.354-8.685-56.971-3.675-79.013-13.361-22.042-9.687-47.137-29.395-89.865-32.4Z" fill="#FDFDFD"/><path d="M421.343 67.355c-14.921-5.678-32.215.223-41.032 4.008 0 0 24.416-4.676 38.998 0 14.581 4.677 26.789 17.704 26.789 17.704s-2.034-13.027-24.755-21.712ZM162.095 31.082C108.855 28.744 1.899 24.134 0 24.402l206.18 15.365-44.085-8.685Zm79.352 13.361c-63.527-2.45-191.462-7.349-194.989-7.349 81.726 6.347 245.72 19.04 247.891 19.04 2.17 0-34.364-7.794-52.902-11.691Zm73.587 14.697-194.31-6.68 247.551 18.037-53.241-11.357Z" fill="#FDFDFD"/></svg>