<svg width="35" height="35" fill="none" xmlns="http://www.w3.org/2000/svg"><path d="m10.897 32.078-.376-.17-.41.046-6.593.73v-7.389l-.173-.33A15.924 15.924 0 0 1 1.5 17.5c0-8.837 7.163-16 16-16s16 7.163 16 16-7.163 16-16 16c-2.358 0-4.592-.509-6.603-1.422Z" fill="#fff" stroke="#43E155" stroke-width="3"/><path d="M17.848 13.652c-.096-.915-2.246-4.85-4.157-4.712-1.912.137-3.393 2.836-3.536 3.934-.144 1.098-.191 4.62 4.205 8.51 4.396 3.889 7.233 4.214 9.27 3.889 2.037-.326 4.922-2.014 3.631-3.89-1.29-1.875-3.631-3.842-5.017-3.248-1.386.595-1.911 2.242-1.911 2.242-2.567-1.469-3.552-2.515-4.73-4.666 0 0 2.34-1.144 2.245-2.06Z" fill="#43E155"/></svg>